<svg width="60" height="60" viewBox="0 0 60 60" fill="none" xmlns="http://www.w3.org/2000/svg">
<path fill-rule="evenodd" clip-rule="evenodd" d="M60 30.001C60 46.5682 46.5682 60 29.999 60C13.4318 60 0 46.5682 0 30.001C0 13.4318 13.4318 0 29.999 0C46.5682 0 60 13.4318 60 30.001Z" fill="#FFD400"/>
<path fill-rule="evenodd" clip-rule="evenodd" d="M35.25 11.435L37.9664 16.1389L42.6683 13.4245L50.8173 27.5341L46.1135 30.2505L48.8278 34.9543L44.1259 37.6687L41.4096 32.9668L36.7057 35.6832L39.4201 40.3851L34.7182 43.1014L32.0018 38.3975L27.298 41.1139L30.0143 45.8178L25.3105 48.5321L22.5941 43.8283L17.8902 46.5446L9.74316 32.433L14.447 29.7186L11.7307 25.0128L16.4346 22.2984L19.1509 27.0023L23.8548 24.2859L21.1384 19.5821L25.8423 16.8677L28.5586 21.5696L33.2625 18.8552L30.5462 14.1513L35.25 11.435ZM38.6932 28.263L43.3971 25.5466L40.6807 20.8427L35.9769 23.5591L38.6932 28.263ZM29.2854 33.6937L26.571 28.9898L31.2749 26.2754L33.9893 30.9773L29.2854 33.6937ZM17.1634 34.4205L19.8797 39.1264L24.5816 36.41L21.8673 31.7062L17.1634 34.4205Z" fill="#10161A"/>
</svg>
