<svg width="516" height="105" viewBox="0 0 516 105" fill="none" xmlns="http://www.w3.org/2000/svg">
<path d="M61.3873 0.045688C61.4195 0.039563 61.4685 0.0426255 61.4807 0.045688C66.3318 -0.461924 72.1291 3.29425 72.1008 9.61987C72.0969 10.2538 72.0365 10.9184 71.9094 11.5998C71.2371 15.2189 69.1516 17.1031 67.0224 19.021C65.6105 20.2958 64.0877 21.396 62.6613 22.4342C61.7449 23.0988 60.8629 23.7365 60.0712 24.3751C57.7743 26.2363 56.0953 28.318 54.5319 31.1394C53.4034 33.166 51.951 36.1994 51.9456 38.6464C51.9395 40.4173 52.6997 41.8789 54.9063 42.4102C58.517 43.28 63.1858 40.7136 66.2713 38.8401C70.0527 36.5409 72.5908 34.4791 74.8203 31.3224C75.8156 29.9197 76.5981 28.5049 77.3637 27.1321C78.4685 25.143 79.5312 23.2358 81.1137 21.556C87.166 15.1355 97.8006 18.9238 97.9369 27.7614C97.9369 27.9406 97.9369 28.1213 97.9308 28.3073L97.9285 28.4145C97.7141 33.46 93.9235 36.3403 90.505 37.622C88.5013 38.3738 86.6416 38.8026 84.5882 39.1241C84.1564 39.1915 83.6954 39.2543 83.2169 39.3209C81.6795 39.5307 79.9599 39.7672 78.3912 40.2496C74.4589 41.4562 70.914 44.0333 68.3362 46.8233C67.115 48.1547 65.7583 49.6622 64.5777 51.4285C63.6551 52.8143 62.9569 54.4497 62.9538 55.9243C62.9477 57.2159 63.4813 58.3805 64.8648 59.1308C67.9916 60.8374 72.7592 59.3214 75.8539 58.0987C78.7334 56.9587 81.4391 55.125 83.3678 53.3051C83.7215 52.9713 84.092 52.6091 84.481 52.2332V52.2302C88.0105 48.7871 93.0384 43.8748 99.4276 46.3547C101.997 47.3523 104.233 49.9164 104.973 52.6474C105.245 53.6649 105.341 54.6832 105.292 55.6694C105.28 55.883 105.262 56.0951 105.236 56.3025C104.996 58.4042 104.103 60.3121 102.902 61.6711C100.953 63.8876 98.4009 64.9802 94.9203 65.1478C92.383 65.2734 90.2286 64.9863 88.1575 64.7122C87.2732 64.5951 86.4027 64.4794 85.5276 64.3968C78.6974 63.7697 73.155 66.712 68.3354 69.7531C66.0041 71.2269 63.675 72.8876 61.6683 74.918C60.0674 76.545 57.573 79.1297 57.6924 81.8822C57.6985 82.0039 57.7077 82.1249 57.7246 82.2428C57.9221 83.7771 58.9044 84.6729 59.9778 85.6261L60.1348 85.7647C61.0719 86.5908 62.2265 87.6183 62.3245 89.0071C62.3336 89.1243 62.3367 89.2383 62.3306 89.3555C62.3268 89.3761 62.3268 89.3953 62.3245 89.416C62.3222 89.4412 62.3222 89.4703 62.3191 89.4994C62.133 91.3844 60.1095 92.7717 58.6625 93.7065C58.0599 94.097 57.4474 94.499 56.8326 94.8994C48.9972 100.035 40.256 105.761 28.5105 104.134C15.1847 102.287 5.08377 92.7916 1.45852 80.5599C0.528283 77.4216 0 74.1409 0 70.4705C0 69.3909 0.0459358 68.277 0.141639 67.1193C0.837596 58.738 4.16349 50.9064 8.03297 42.9714C8.14628 42.7417 8.25884 42.5074 8.37598 42.2724C10.385 38.1663 12.6267 33.5902 12.6329 28.8486C12.6352 27.3434 12.4131 25.8152 11.8826 24.2832C11.6008 23.4693 11.2884 22.6922 10.9806 21.9228C10.4792 20.6878 9.98303 19.462 9.62854 18.0831C9.31617 16.8543 9.17147 15.6676 9.17376 14.5375C9.17606 10.8625 10.728 7.78236 13.0103 5.77565C19.1101 0.422378 26.9631 4.69994 28.7003 10.7553C28.9522 11.6365 29.0633 12.6181 29.0602 13.6096C29.0564 15.186 28.7723 16.7907 28.3229 18.0839C27.5488 20.3195 26.3016 22.0575 24.9825 23.8988C23.9443 25.3397 22.8655 26.845 21.9368 28.6978C21.0119 30.5483 20.2317 32.7089 19.9622 34.6146C19.852 35.4139 19.7861 36.24 19.7861 37.0585C19.78 40.8575 21.1811 44.4866 25.7887 44.3848C28.3872 44.3273 30.9268 43.0043 33.0246 41.7541C39.3732 37.9604 44.79 33.2196 48.6151 26.8151C49.8684 24.7188 50.9993 22.193 51.5268 19.6756C51.8974 17.9093 52.0168 16.1514 52.1477 14.2297C52.2113 13.3048 52.2756 12.3409 52.3736 11.318C52.9662 5.06821 55.9644 0.737816 61.3873 0.045688ZM73.8809 78.8595C71.2823 81.1211 66.2483 86.2838 69.7457 90.2298C71.7669 92.5022 77.0919 94.3612 80.6437 94.6421C83.2652 94.8481 85.6225 94.3405 87.5374 93.3191C90.6313 91.6677 92.566 88.6634 92.5744 85.1522C92.5829 82.4863 91.5562 80.1358 90.4138 78.7653C88.5633 76.5434 85.1272 74.931 81.7752 75.1975C79.4317 75.3843 77.2917 76.3528 75.4672 77.6253C75.3539 77.7011 75.2444 77.7776 75.1342 77.858C74.6955 78.1781 74.2782 78.5149 73.8809 78.8595Z" fill="#00C9A5"/>
<path d="M164.211 79.4168V57.947C164.211 52.7745 160.599 50.12 156.439 50.12C152.272 50.12 148.449 52.7737 148.449 57.947V79.4168H137.533V26.998H148.446V46.3845C150.963 43.152 155.359 40.2074 160.887 40.2074C169.144 40.2074 175.12 45.6656 175.12 54.4979V79.4168H164.211V79.4168Z" fill="white"/>
<path d="M273.742 79.4174V57.9476C273.742 52.775 271.445 50.1206 267.349 50.1206C263.254 50.1206 260.743 52.7743 260.743 57.9476V79.4174H249.832V57.9476C249.832 52.775 247.533 50.1206 243.441 50.1206C239.349 50.1206 236.834 52.7743 236.834 57.9476V79.4174H225.922V40.9277H236.834V46.3851C239.349 43.1526 242.649 40.208 248.177 40.208C253.202 40.208 257.011 42.436 259.02 46.3147C262.396 42.364 266.417 40.208 271.656 40.208C279.77 40.208 284.652 45.092 284.652 54.3561V79.4181H273.742V79.4174Z" fill="white"/>
<path d="M319.568 79.4174V73.8895C316.911 77.4796 313.25 80.134 307.576 80.134C298.602 80.134 290.062 73.1009 290.062 60.2437V60.099C290.062 47.2464 298.465 40.208 307.576 40.208C313.397 40.208 316.986 42.8647 319.568 45.9556V41.0127H330.484V79.4174H319.568V79.4174ZM319.712 60.099C319.712 53.7083 315.479 49.4706 310.377 49.4706C305.282 49.4706 300.972 53.6356 300.972 60.099V60.2437C300.972 66.6352 305.282 70.873 310.377 70.873C315.479 70.873 319.712 66.6352 319.712 60.2437V60.099Z" fill="white"/>
<path d="M364.808 79.4174V57.9476C364.808 52.0791 361.764 50.1206 357.28 50.1206C353.117 50.1206 349.071 52.7743 349.071 57.9476V79.4174H338.16V40.9277H349.071V46.3851C351.588 43.1526 355.681 40.208 361.209 40.208C369.464 40.208 375.72 45.4204 375.72 55.1875V79.4174H364.808Z" fill="white"/>
<path d="M192.418 41.0703V62.5424C192.418 68.6758 195.616 70.3724 200.469 70.3724C204.633 70.3724 208.152 67.7157 208.152 62.5424V41.0703H219.064V79.5623H208.152V74.1049C205.638 77.3374 201.545 80.2797 196.014 80.2797C187.761 80.2797 181.502 75.068 181.502 65.3017V41.0703H192.418Z" fill="white"/>
<path d="M428.409 51.6264C421.155 51.6264 416.708 56.0112 416.708 65.1995V79.418H405.793V40.9314H416.708V48.6834C418.935 43.3707 422.519 39.9253 428.986 40.2086V51.6264H428.409V51.6264Z" fill="white"/>
<path d="M450.976 80.2787C439.058 80.2787 430.225 71.4518 430.225 60.3884V60.2437C430.225 49.1835 439.128 40.208 451.119 40.208C463.036 40.208 471.87 49.0395 471.87 60.099V60.2437C471.869 71.3048 462.967 80.2787 450.976 80.2787ZM461.099 60.2437C461.099 54.5689 457.006 49.6168 450.974 49.6168C444.727 49.6168 440.995 54.425 440.995 60.099V60.2437C440.995 65.9178 445.09 70.873 451.119 70.873C457.363 70.873 461.099 66.061 461.099 60.3884V60.2437V60.2437Z" fill="white"/>
<path d="M494.489 91.0503C488.247 91.0503 482.356 89.6125 477.475 87.0293L481.208 78.8424C485.155 81.0704 489.104 82.3597 494.2 82.3597C501.671 82.3597 505.189 78.7727 505.189 71.879V70.0109C501.955 73.8895 498.441 76.2584 492.626 76.2584C483.652 76.2584 475.539 69.726 475.539 58.3059V58.1612C475.539 46.673 483.795 40.208 492.626 40.208C498.586 40.208 502.103 42.7239 505.044 45.9556V40.9277H515.96V70.7329C515.959 85.2316 508.777 91.0503 494.489 91.0503ZM505.189 58.1605C505.189 52.9182 501.096 49.2585 495.788 49.2585C490.472 49.2585 486.452 52.9182 486.452 58.1605V58.3052C486.452 63.6171 490.472 67.211 495.788 67.211C501.097 67.211 505.189 63.5497 505.189 58.3052V58.1605Z" fill="white"/>
<path d="M397.263 33.7569C399.13 33.7569 402.387 34.1198 403.971 34.6909V25.6427C401.959 24.9996 397.91 24.5693 394.465 24.5693C386.783 24.5693 382.549 28.4472 382.549 36.9182L382.523 85.6711C382.523 88.5445 381.09 89.8361 378.579 89.8361C377.861 89.8361 377.195 89.7856 376.561 89.6853V97.1494C377.915 97.376 379.559 97.5896 381.47 97.5896C389.155 97.5896 393.464 94.4337 393.464 85.9658L393.459 50.2615H401.564V41.3588H393.316V37.9188C393.316 35.0508 394.752 33.7569 397.263 33.7569Z" fill="white"/>
</svg>
