<svg width="619" height="614" viewBox="0 0 619 614" fill="none" xmlns="http://www.w3.org/2000/svg">
<path d="M360.849 0.268661C361.038 0.232644 361.326 0.250653 361.398 0.268661C389.913 -2.71627 423.991 19.3713 423.825 56.5682C423.802 60.296 423.447 64.2039 422.7 68.2108C418.748 89.4925 406.489 100.572 393.973 111.85C385.674 119.346 376.722 125.816 368.338 131.921C362.951 135.829 357.766 139.579 353.112 143.334C339.611 154.279 329.741 166.52 320.551 183.111C313.917 195.028 305.38 212.865 305.348 227.254C305.312 237.668 309.781 246.262 322.752 249.387C343.976 254.501 371.421 239.41 389.558 228.393C411.786 214.873 426.705 202.749 439.811 184.187C445.661 175.939 450.261 167.619 454.762 159.546C461.256 147.85 467.503 136.635 476.805 126.757C512.382 89.0018 574.894 111.279 575.696 163.247C575.696 164.301 575.696 165.363 575.66 166.457L575.646 167.087C574.386 196.757 552.104 213.694 532.009 221.23C520.231 225.652 509.299 228.173 497.229 230.064C494.69 230.46 491.981 230.829 489.168 231.221C480.131 232.454 470.023 233.845 460.801 236.682C437.686 243.777 416.849 258.932 401.696 275.337C394.517 283.167 386.542 292.031 379.602 302.418C374.179 310.567 370.075 320.184 370.057 328.855C370.021 336.45 373.158 343.298 381.29 347.71C399.67 357.745 427.695 348.831 445.887 341.641C462.813 334.937 478.718 324.154 490.055 313.453C492.134 311.49 494.312 309.36 496.599 307.15V307.132C517.346 286.886 546.901 258 584.458 272.582C599.562 278.448 612.703 293.526 617.055 309.585C618.653 315.569 619.216 321.557 618.928 327.355C618.86 328.612 618.757 329.859 618.604 331.079C617.191 343.437 611.938 354.657 604.882 362.648C593.428 375.682 578.423 382.106 557.963 383.092C543.049 383.831 530.384 382.142 518.21 380.531C513.012 379.842 507.895 379.162 502.751 378.676C462.601 374.988 430.022 392.29 401.691 410.173C387.987 418.839 374.296 428.605 362.501 440.544C353.09 450.111 338.427 465.311 339.129 481.496C339.165 482.212 339.219 482.923 339.318 483.617C340.479 492.639 346.254 497.906 352.563 503.512L353.486 504.327C358.995 509.184 365.781 515.226 366.357 523.393C366.411 524.082 366.429 524.753 366.393 525.442C366.371 525.563 366.371 525.676 366.357 525.797C366.344 525.946 366.344 526.117 366.326 526.288C365.232 537.372 353.337 545.53 344.831 551.027C341.289 553.324 337.689 555.687 334.075 558.042C288.017 588.242 236.634 621.91 167.591 612.342C89.2592 601.483 29.8836 545.647 8.57352 473.721C3.10537 455.266 0 435.975 0 414.391C0 408.043 0.270021 401.493 0.832589 394.685C4.92358 345.4 24.4739 299.347 47.2196 252.687C47.8857 251.336 48.5473 249.959 49.2359 248.577C61.0453 224.431 74.2229 197.522 74.2589 169.64C74.2724 160.789 72.9672 151.803 69.8484 142.794C68.1922 138.008 66.356 133.438 64.5468 128.914C61.5989 121.652 58.6825 114.444 56.5988 106.335C54.7626 99.1092 53.912 92.1308 53.9255 85.4856C53.939 63.8752 63.0615 45.763 76.4777 33.9629C112.333 2.48373 158.495 27.6373 168.707 63.2449C170.188 68.4269 170.84 74.1987 170.822 80.029C170.8 89.2989 169.13 98.7355 166.488 106.34C161.938 119.486 154.607 129.706 146.853 140.534C140.75 149.007 134.409 157.858 128.949 168.753C123.513 179.635 118.927 192.34 117.343 203.546C116.694 208.246 116.307 213.104 116.307 217.917C116.271 240.257 124.507 261.597 151.592 260.998C166.867 260.66 181.795 252.881 194.126 245.529C231.445 223.22 263.286 195.343 285.771 157.682C293.138 145.355 299.785 130.503 302.886 115.7C305.065 105.313 305.767 94.9762 306.536 83.6758C306.91 78.2372 307.288 72.5689 307.864 66.554C311.347 29.8029 328.971 4.33862 360.849 0.268661ZM434.289 463.722C419.014 477.021 389.423 507.379 409.981 530.583C421.863 543.946 453.164 554.877 474.042 556.529C489.452 557.74 503.309 554.755 514.565 548.749C532.751 539.038 544.124 521.372 544.174 500.725C544.223 485.048 538.188 471.227 531.473 463.168C520.595 450.102 500.397 440.621 480.694 442.188C466.917 443.286 454.338 448.981 443.614 456.464C442.948 456.91 442.304 457.36 441.656 457.833C439.077 459.715 436.624 461.696 434.289 463.722Z" fill="#00C9A5"/>
</svg>
