<svg xmlns="http://www.w3.org/2000/svg" xmlns:xlink="http://www.w3.org/1999/xlink" width="700" height="697.869" viewBox="0 0 700 697.869"><defs><clipPath id="a"><path d="M0-595.276H700V102.593H0Z" transform="translate(321.122 792.915)"/></clipPath></defs><g transform="translate(-321.122 -197.639)" clip-path="url(#a)"><path d="M497.869,248.934c0,192.713-156.225,348.934-348.938,348.934S-200,441.647-200,248.934-43.779-100,148.931-100,497.869,56.225,497.869,248.934" transform="translate(521.122 297.639)" fill="#593c15"/><path d="M390.019,143.929c-31.544-10.8-46.768-23.2-75.3-48.589-38.034-33.84-69.424-48.568-84.882-57.407a1.781,1.781,0,0,1,1.225-3.3c12.59.911,33.948-4.766,45.3-21.124,9.662-13.922,28.951-24.677,46.942-17.8a1.118,1.118,0,0,0,1.385-1.5c-14.844-35.41-34.426-52.075-67.931-52.03-28.047,0-45.417,15.562-58.586,36.324a3.476,3.476,0,0,1-2.928,1.626H15.734a1.044,1.044,0,0,1-1.043-1.043V-53.523a1.031,1.031,0,0,0-1.256-1.022C3.783-52.336-58.871-32.939-84.344,102.1a.552.552,0,0,1-.112.248c-2.568,3.27-63.066,80.879-71.2,138.949-2.966,21.173.855,31.463,7.621,38.843,12.886,14.055,25.821,9.721,38.048-7.1,18.64-25.643,7.4-38.428,35.316-35.232,2.509.286,2.983,3.2,1.043,5.14L-113.389,282.7a3.733,3.733,0,0,0-.632,4.131c6.637,13.947,23.284,37.039,64.6,36.533,54.661-.666,43.17,62.752,52.961,85.737a1.077,1.077,0,0,0,2.073-.394c.325-33.428,8.9-105.326,24.049-90.768,9.543,9.177,6.3,32.133,4.948,41.377a.979.979,0,0,0,1.839.593c5.949-11.86,17.377-56.608,6.563-98.8a2.1,2.1,0,0,1,3.434-2.059c13.968,11.9,17.29,29.031,19.809,42.242a.822.822,0,0,0,1.619-.01c4.2-25.922,4.107-77.149,26.994-66.35,19.76,9.32,34.011,37.032,38.041,100.521,4.25,66.922,23.849,104.224,23.849,104.224,138.38-30.406,237.854-152.264,256.609-288.373,0,0-.218.543-23.346-7.378" transform="translate(602.972 444.339)" fill="#fff"/><path d="M48.587,107.5h-66.36a1.748,1.748,0,0,1-1.745-1.745V57.538q0-30.577,5.346-47.975T5.717-21.757Q19.755-35.2,40.855-43.074a1.779,1.779,0,0,1,2.216.9L55.227-16.544A1.738,1.738,0,0,1,54.2-14.168Q34.766-7.285,26.1,4.594T16.586,35.81a1.776,1.776,0,0,0,1.762,1.842H48.587A1.748,1.748,0,0,1,50.332,39.4v66.357a1.745,1.745,0,0,1-1.745,1.745" transform="translate(741.921 299.527)" fill="#fff"/><path d="M48.587,107.5h-66.36a1.745,1.745,0,0,1-1.745-1.745V57.538q0-30.577,5.346-47.975T5.717-21.757Q19.755-35.2,40.855-43.074a1.779,1.779,0,0,1,2.216.9L55.227-16.544A1.738,1.738,0,0,1,54.2-14.168Q34.766-7.285,26.1,4.594T16.586,35.81a1.776,1.776,0,0,0,1.762,1.842H48.587A1.748,1.748,0,0,1,50.332,39.4v66.357a1.745,1.745,0,0,1-1.745,1.745" transform="translate(654.626 299.527)" fill="#fff"/></g></svg>