<?xml version="1.0" encoding="UTF-8"?>
<svg id="Layer_1" data-name="Layer 1" xmlns="http://www.w3.org/2000/svg" xmlns:xlink="http://www.w3.org/1999/xlink" version="1.1" viewBox="0 0 700 250">
  <defs>
    <style>
      .cls-1 {
        clip-path: url(#clippath);
      }

      .cls-2 {
        fill: none;
      }

      .cls-2, .cls-3, .cls-4 {
        stroke-width: 0px;
      }

      .cls-3 {
        fill: #fff;
      }

      .cls-4 {
        fill: #593c15;
      }
    </style>
    <clipPath id="clippath">
      <rect class="cls-2" y="0" width="700" height="250"/>
    </clipPath>
  </defs>
  <g class="cls-1">
    <g>
      <path class="cls-4" d="M250,125c0,69-56,125-125,125S0,194.1,0,125,56,0,125,0c69,0,125,56,125,125h0"/>
      <path class="cls-3" d="M240.7,140c-11.3-3.9-16.8-8.3-27-17.4-13.6-12.1-24.9-17.4-30.4-20.6-.3-.2-.4-.6-.3-.9.1-.2.4-.4.7-.3,4.5.3,12.2-1.7,16.2-7.6,3.5-5,10.4-8.8,16.8-6.4.2,0,.4,0,.5-.2,0,0,0-.2,0-.3-5.3-12.7-12.3-18.7-24.3-18.6-10,0-16.3,5.6-21,13-.2.4-.6.6-1,.6h-64.3c-.2,0-.4-.2-.4-.4h0v-11.7c0-.2-.2-.4-.4-.4,0,0,0,0,0,0-3.5.8-25.9,7.7-35,56.1,0,0,0,0,0,0-.9,1.2-22.6,29-25.5,49.8-1.1,7.6.3,11.3,2.7,13.9,4.6,5,9.3,3.5,13.6-2.5,6.7-9.2,2.7-13.8,12.7-12.6.9,0,1.1,1.1.4,1.8l-14.2,14.2c-.4.4-.5,1-.2,1.5,2.4,5,8.3,13.3,23.1,13.1,19.6-.2,15.5,22.5,19,30.7,0,.2.3.3.5.2.1,0,.2-.2.2-.4.1-12,3.2-37.7,8.6-32.5,3.4,3.3,2.3,11.5,1.8,14.8,0,.2.1.4.3.4.1,0,.3,0,.4-.2,2.1-4.2,6.2-20.3,2.3-35.4,0-.4.2-.8.6-.9.2,0,.5,0,.7.2,5,4.3,6.2,10.4,7.1,15.1,0,.2.2.3.4.2.1,0,.2-.1.2-.2,1.5-9.3,1.5-27.6,9.7-23.8,7.1,3.3,12.2,13.3,13.6,36,1.5,24,8.5,37.4,8.5,37.4,53.3-10.3,85.4-54.4,92.1-103.2,0,0-.2,0-8.5-2.8"/>
      <path class="cls-3" d="M168.2,75h-23.8c-.3,0-.6-.3-.6-.6v-17.3c0-7.3.6-13,1.9-17.2,1.4-4.3,3.8-8.2,7.1-11.2,3.6-3.4,7.9-6,12.6-7.6.3-.1.7,0,.8.3l4.4,9.2c.1.3,0,.7-.3.8,0,0,0,0,0,0-4.6,1.6-8,3.9-10.1,6.7-2.1,2.8-3.2,6.6-3.4,11.2,0,.3.3.6.6.7,0,0,0,0,0,0h10.8c.3,0,.6.3.6.6,0,0,0,0,0,0v23.8c0,.3-.3.6-.6.6"/>
      <path class="cls-3" d="M136.9,75h-23.8c-.3,0-.6-.3-.6-.6v-17.3c0-7.3.6-13,1.9-17.2,1.4-4.3,3.8-8.2,7.1-11.2,3.6-3.4,7.9-6,12.6-7.6.3-.1.7,0,.8.3l4.4,9.2c.1.3,0,.7-.3.8,0,0,0,0,0,0-4.6,1.6-8,3.9-10.1,6.7-2.1,2.8-3.2,6.6-3.4,11.2,0,.4.3.6.6.7,0,0,0,0,0,0h10.8c.3,0,.6.3.6.6,0,0,0,0,0,0v23.8c0,.3-.3.6-.6.6"/>
      <path class="cls-4" d="M344.5,115.6l3-3.8,32.6-36.9h25.6l-41.3,44.9,41.5,55.2h-25l-30.9-42.7-4.9,4.9v37.8h-20v-100.1h20v35.6l-.5,5Z"/>
      <path class="cls-4" d="M456.9,138.8l-9.7-24.3-10.1,24.3h19.7ZM463.5,155.4h-33.2l-8.2,19.6h-19.5l45.2-104.1h1.1l45.2,104.1h-22.9l-7.8-19.6Z"/>
      <path class="cls-4" d="M521.5,74.9v81.1h47.1v19h-66.8v-100.1h19.7Z"/>
      <path class="cls-4" d="M613.6,156c10.2,0,18.4-2.6,24.3-7.9s9-12.8,9-22.7c0-8-1.7-14.3-5-19-2.8-4.3-6.8-7.7-11.6-9.8-3.9-1.7-8.2-2.6-12.4-2.7h-16.1v62.2h11.7ZM582.2,74.9h29.9c12.8,0,23.3,2.5,31.6,7.4,8.2,4.9,14.3,11.3,18,19.2,3.8,7.9,5.7,16.5,5.6,25.2.2,8.9-2.2,17.8-6.8,25.4-4.4,7.2-10.7,13.1-18.3,16.9-7.8,4-16.5,6-25.2,5.9h-34.8v-100.1Z"/>
      <path class="cls-4" d="M700,175h-19.7v-100.1h19.7v100.1Z"/>
    </g>
  </g>
</svg>