<svg width="145" height="48" viewBox="0 0 145 48" fill="none" xmlns="http://www.w3.org/2000/svg">
  <path d="M59.2373 29.0795C57.5633 29.0795 56.1183 28.9445 54.9423 28.6795C53.9173 28.4475 53.1093 28.0335 52.4713 27.4125C51.8353 26.7925 51.3493 25.8845 51.0273 24.7135C50.6693 23.4145 50.4873 21.6875 50.4873 19.5805V15.8925C50.4873 13.8505 50.6413 12.1575 50.9473 10.8625C51.2143 9.72749 51.6583 8.84449 52.2663 8.23549C52.8913 7.61049 53.6993 7.17749 54.7373 6.90849C55.9013 6.60849 57.4153 6.45649 59.2373 6.45649C61.0703 6.45649 62.6163 6.60049 63.8313 6.88549C64.9033 7.13749 65.7363 7.56249 66.3763 8.18649C67.0113 8.80649 67.4873 9.68249 67.7893 10.7885C68.1273 12.0285 68.2993 13.6625 68.2993 15.6435V21.3305C68.2993 23.0595 68.0623 24.4445 67.5943 25.4475C67.1443 26.4155 66.5573 27.1365 65.7983 27.6515C64.9983 28.1965 64.0573 28.5695 63.0013 28.7595C61.8253 28.9725 60.5583 29.0795 59.2373 29.0795ZM71.3383 4.03049C70.0603 2.72849 68.3843 1.75949 66.3573 1.14649C64.4303 0.564492 62.0563 0.269493 59.2993 0.269493C56.7143 0.269493 54.4513 0.541492 52.5763 1.07749C50.5963 1.64249 48.9233 2.57249 47.6023 3.84549C46.2763 5.12449 45.2923 6.79149 44.6783 8.79949C44.0963 10.7035 43.8003 13.0485 43.8003 15.7675V19.7675C43.8003 25.2485 45.0573 29.2475 47.5363 31.6565C50.0033 34.0525 53.8353 35.2675 58.9253 35.2675C61.7543 35.2675 64.1973 34.9005 66.1863 34.1775C66.9543 33.8985 67.6583 33.5525 68.2963 33.1405C68.2703 34.7535 68.1023 36.1055 67.7963 37.1625C67.4973 38.1875 67.0363 38.9725 66.3883 39.5585C65.7313 40.1505 64.8233 40.5795 63.6903 40.8335C62.4073 41.1215 60.7833 41.2655 58.8623 41.2655C57.2033 41.2655 55.6903 41.2555 54.3233 41.2345C52.9583 41.2125 51.3533 41.1625 49.5543 41.0795L48.3123 41.0235L46.8613 47.1875L48.6743 47.2655C50.6253 47.3475 52.3953 47.4005 53.9353 47.4215C55.4633 47.4435 57.1053 47.4535 58.8623 47.4535C61.5933 47.4535 63.9743 47.2065 65.9403 46.7225C68.0293 46.2045 69.7613 45.3315 71.0903 44.1245C72.4303 42.9065 73.4143 41.3045 74.0133 39.3655C74.5763 37.5405 74.8613 35.3005 74.8613 32.7045V15.5815C74.8613 13.0865 74.6013 10.8715 74.0893 8.99749C73.5443 7.00749 72.6183 5.33649 71.3383 4.03049Z" fill="#5DBB46"/>
  <path d="M40.7646 19.8217C40.7646 22.0527 38.9556 23.8617 36.7246 23.8617C34.4936 23.8617 32.6856 22.0527 32.6856 19.8217C32.6856 17.5917 34.4936 15.7827 36.7246 15.7827C38.9556 15.7827 40.7646 17.5917 40.7646 19.8217Z" fill="#7E8B8B"/>
  <path d="M106.377 3.72888C104.033 1.43388 100.284 0.269882 95.2339 0.269882C92.7599 0.269882 90.5669 0.566882 88.7189 1.15288C86.7729 1.76788 85.1399 2.76388 83.8629 4.11388C82.5959 5.45388 81.6569 7.18888 81.0719 9.26888C80.5169 11.2449 80.2349 13.6419 80.2349 16.3929V20.3309C80.2349 22.8489 80.4579 25.1059 80.8979 27.0379C81.3639 29.0949 82.1939 30.8519 83.3619 32.2559C84.5529 33.6909 86.1939 34.7829 88.2399 35.4959C90.1819 36.1739 92.6409 36.5179 95.5469 36.5179C97.1779 36.5179 98.8799 36.5059 100.658 36.4859C102.438 36.4649 104.04 36.4339 105.464 36.3909L106.64 36.3569L107.976 30.1639L106.075 30.2049C104.164 30.2459 102.377 30.2769 100.714 30.2989C99.0539 30.3199 97.3309 30.3299 95.5469 30.3299C93.6119 30.3299 92.0369 30.1599 90.8649 29.8239C89.8439 29.5329 89.0769 29.0599 88.5199 28.3779C87.9339 27.6639 87.5139 26.6499 87.2709 25.3639C87.2099 25.0419 87.1569 24.6919 87.1099 24.3269C86.8689 22.7619 86.7229 20.7189 86.7229 18.4759C86.7229 16.5619 86.8299 14.7929 87.0109 13.3409C87.0919 12.5069 87.2029 11.7519 87.3529 11.1039C87.6469 9.82288 88.1069 8.82988 88.7219 8.14988C89.3189 7.48888 90.0839 7.04188 91.0579 6.78088C92.1779 6.48288 93.5619 6.33188 95.1719 6.33188C96.7899 6.33188 98.1819 6.47388 99.3069 6.75488C100.298 7.00288 101.104 7.41688 101.701 7.98288C102.297 8.54688 102.75 9.33488 103.047 10.3249C103.378 11.4289 103.546 12.8619 103.546 14.5819V15.2059H89.7679L91.0649 21.2679H105.108C105.839 21.2679 106.452 21.2179 106.981 21.1169C107.741 20.9729 108.365 20.6399 108.835 20.1299C109.271 19.6589 109.572 19.0309 109.733 18.2589C109.859 17.6509 109.921 16.8759 109.921 15.8929V14.3939C109.921 9.62188 108.729 6.03388 106.377 3.72888Z" fill="#5DBB46"/>
  <path d="M21.876 7.93297C22.357 8.47497 22.66 9.14097 22.801 9.96897C22.973 10.986 23.061 12.195 23.061 13.562V35.435L29.686 34.531V13.187C29.686 11.237 29.48 9.44997 29.076 7.87497C28.637 6.16697 27.825 4.69997 26.663 3.51197C25.51 2.33397 23.928 1.43797 21.962 0.844967C20.099 0.284967 17.714 -3.43323e-05 14.874 -3.43323e-05C12.027 -3.43323e-05 9.63798 0.296966 7.76998 0.880966C5.81498 1.49297 4.23098 2.39497 3.06298 3.56397C1.87598 4.75197 1.05098 6.22397 0.608984 7.93897C0.204984 9.51197 -1.52588e-05 11.279 -1.52588e-05 13.187V35.465L6.62398 34.56V13.562C6.62398 12.236 6.71198 11.048 6.88398 10.032C7.02498 9.20297 7.32698 8.53697 7.80898 7.99497C8.28498 7.45797 9.04398 7.02797 10.063 6.71497C11.207 6.36497 12.825 6.18697 14.874 6.18697C16.888 6.18697 18.492 6.35597 19.643 6.68997C20.652 6.98297 21.404 7.40197 21.876 7.93297Z" fill="#7E8B8B"/>
  <path d="M137.171 7.93297C137.652 8.47497 137.955 9.14097 138.096 9.96897C138.268 10.986 138.356 12.195 138.356 13.562V35.435L144.981 34.531V13.187C144.981 11.237 144.775 9.44997 144.371 7.87497C143.932 6.16697 143.12 4.69997 141.958 3.51197C140.805 2.33397 139.223 1.43797 137.257 0.844967C135.394 0.284967 133.009 -3.43323e-05 130.169 -3.43323e-05C127.322 -3.43323e-05 124.933 0.296966 123.065 0.880966C121.11 1.49297 119.526 2.39497 118.358 3.56397C117.171 4.75197 116.346 6.22397 115.904 7.93897C115.5 9.51197 115.295 11.279 115.295 13.187V35.465L121.919 34.56V13.562C121.919 12.236 122.007 11.048 122.179 10.032C122.32 9.20297 122.622 8.53697 123.104 7.99497C123.58 7.45797 124.339 7.02797 125.358 6.71497C126.502 6.36497 128.12 6.18697 130.169 6.18697C132.183 6.18697 133.787 6.35597 134.938 6.68997C135.947 6.98297 136.699 7.40197 137.171 7.93297Z" fill="#5DBB46"/>
  </svg>
  