<svg width="348" height="97" viewBox="0 0 348 97" fill="none" xmlns="http://www.w3.org/2000/svg">
<path d="M83.536 42.736C84.6453 40.3893 86.3947 38.448 88.784 36.912C91.216 35.3333 94.096 34.544 97.424 34.544C100.581 34.544 103.419 35.2907 105.936 36.784C108.496 38.2347 110.48 40.3253 111.888 43.056C113.339 45.744 114.064 48.88 114.064 52.464C114.064 56.048 113.339 59.2053 111.888 61.936C110.48 64.6667 108.496 66.7787 105.936 68.272C103.419 69.7653 100.581 70.512 97.424 70.512C94.1387 70.512 91.28 69.744 88.848 68.208C86.416 66.6293 84.6453 64.6667 83.536 62.32V86.512H79.12V35.056H83.536V42.736ZM109.52 52.464C109.52 49.5627 108.944 47.0667 107.792 44.976C106.683 42.8427 105.147 41.2213 103.184 40.112C101.221 39.0027 99.0027 38.448 96.528 38.448C94.1387 38.448 91.9413 39.024 89.936 40.176C87.9733 41.328 86.416 42.9707 85.264 45.104C84.112 47.2373 83.536 49.712 83.536 52.528C83.536 55.344 84.112 57.8187 85.264 59.952C86.416 62.0853 87.9733 63.728 89.936 64.88C91.9413 66.032 94.1387 66.608 96.528 66.608C99.0027 66.608 101.221 66.0533 103.184 64.944C105.147 63.792 106.683 62.1493 107.792 60.016C108.944 57.84 109.52 55.3227 109.52 52.464ZM126.788 41.264C127.769 39.088 129.262 37.4027 131.268 36.208C133.316 35.0133 135.812 34.416 138.756 34.416V39.088H137.54C134.297 39.088 131.694 39.9627 129.732 41.712C127.769 43.4613 126.788 46.384 126.788 50.48V70H122.308V35.056H126.788V41.264ZM157.527 70.512C153.516 70.512 150.231 69.5947 147.671 67.76C145.154 65.8827 143.746 63.344 143.447 60.144H148.055C148.268 62.1067 149.186 63.7067 150.807 64.944C152.471 66.1387 154.69 66.736 157.463 66.736C159.895 66.736 161.794 66.16 163.159 65.008C164.567 63.856 165.271 62.4267 165.271 60.72C165.271 59.5253 164.887 58.544 164.119 57.776C163.351 57.008 162.37 56.4107 161.175 55.984C160.023 55.5147 158.444 55.024 156.439 54.512C153.836 53.8293 151.724 53.1467 150.103 52.464C148.482 51.7813 147.095 50.7787 145.943 49.456C144.834 48.0907 144.279 46.2773 144.279 44.016C144.279 42.3093 144.791 40.7307 145.815 39.28C146.839 37.8293 148.29 36.6773 150.167 35.824C152.044 34.9707 154.178 34.544 156.567 34.544C160.322 34.544 163.351 35.504 165.655 37.424C167.959 39.3013 169.196 41.904 169.367 45.232H164.887C164.759 43.184 163.948 41.5413 162.455 40.304C161.004 39.024 158.999 38.384 156.439 38.384C154.178 38.384 152.343 38.9173 150.935 39.984C149.527 41.0507 148.823 42.3733 148.823 43.952C148.823 45.3173 149.228 46.448 150.039 47.344C150.892 48.1973 151.938 48.88 153.175 49.392C154.412 49.8613 156.076 50.3947 158.167 50.992C160.684 51.6747 162.69 52.336 164.183 52.976C165.676 53.616 166.956 54.5547 168.023 55.792C169.09 57.0293 169.644 58.672 169.687 60.72C169.687 62.5973 169.175 64.2827 168.151 65.776C167.127 67.2267 165.698 68.3787 163.863 69.232C162.028 70.0853 159.916 70.512 157.527 70.512ZM197 70L182.6 54.32V70H178.12V22.64H182.6V50.672L196.68 35.056H202.952L186.376 52.464L203.08 70H197ZM206.822 52.464C206.822 48.88 207.526 45.744 208.934 43.056C210.385 40.3253 212.369 38.2347 214.886 36.784C217.446 35.2907 220.326 34.544 223.526 34.544C226.854 34.544 229.713 35.312 232.102 36.848C234.534 38.384 236.283 40.3467 237.35 42.736V35.056H241.83V70H237.35V62.256C236.241 64.6453 234.47 66.6293 232.038 68.208C229.649 69.744 226.79 70.512 223.462 70.512C220.305 70.512 217.446 69.7653 214.886 68.272C212.369 66.7787 210.385 64.6667 208.934 61.936C207.526 59.2053 206.822 56.048 206.822 52.464ZM237.35 52.528C237.35 49.712 236.774 47.2373 235.622 45.104C234.47 42.9707 232.891 41.328 230.886 40.176C228.923 39.024 226.747 38.448 224.358 38.448C221.883 38.448 219.665 39.0027 217.702 40.112C215.739 41.2213 214.182 42.8427 213.03 44.976C211.921 47.0667 211.366 49.5627 211.366 52.464C211.366 55.3227 211.921 57.84 213.03 60.016C214.182 62.1493 215.739 63.792 217.702 64.944C219.665 66.0533 221.883 66.608 224.358 66.608C226.747 66.608 228.923 66.032 230.886 64.88C232.891 63.728 234.47 62.0853 235.622 59.952C236.774 57.8187 237.35 55.344 237.35 52.528ZM256.538 22.64V70H252.058V22.64H256.538ZM283.067 34.416C287.248 34.416 290.661 35.7173 293.307 38.32C295.952 40.88 297.275 44.6133 297.275 49.52V70H292.859V50.032C292.859 46.2347 291.899 43.3333 289.979 41.328C288.101 39.3227 285.52 38.32 282.235 38.32C278.864 38.32 276.176 39.3867 274.171 41.52C272.165 43.6533 271.163 46.7893 271.163 50.928V70H266.683V35.056H271.163V41.008C272.272 38.8747 273.872 37.2533 275.963 36.144C278.053 34.992 280.421 34.416 283.067 34.416ZM309.423 28.464C308.527 28.464 307.759 28.144 307.119 27.504C306.479 26.864 306.159 26.0747 306.159 25.136C306.159 24.1973 306.479 23.4293 307.119 22.832C307.759 22.192 308.527 21.872 309.423 21.872C310.319 21.872 311.087 22.192 311.727 22.832C312.367 23.4293 312.687 24.1973 312.687 25.136C312.687 26.0747 312.367 26.864 311.727 27.504C311.087 28.144 310.319 28.464 309.423 28.464ZM311.663 35.056V70H307.183V35.056H311.663ZM340.688 70L326.288 54.32V70H321.808V22.64H326.288V50.672L340.368 35.056H346.64L330.064 52.464L346.768 70H340.688Z" fill="white"/>
<path d="M23.7178 15C30.8405 15 36.3188 17.6457 40.0107 21.7021C42.1267 24.027 43.629 26.7876 44.5283 29.7236C53.1934 33.0418 57.8047 41.4714 58.0068 49.79C58.1366 55.1329 56.4661 60.5378 52.8223 64.625C49.1545 68.7388 43.5911 71.4003 36.1904 71.4004H16.6416V96.1289L0 79.4873V15H23.7178ZM3 78.2441L13.6416 88.8857V69.9004H13.6436V29.7529H14.1016C14.1016 28.9049 14.1016 28.2721 14.1016 28.2529H36.1904C37.8779 28.253 39.4709 28.4112 40.9688 28.7061C40.1931 26.8871 39.133 25.1951 37.792 23.7217C34.6993 20.3236 30.0426 18 23.7178 18H3V78.2441ZM45.3281 33.3848C45.461 34.3759 45.5303 35.3749 45.5352 36.3721C45.561 41.6704 43.7836 47.0161 40.1221 51.0537C36.4376 55.1166 30.9314 57.7578 23.7178 57.7578H16.6436V68.4004H36.1904C42.8219 68.4003 47.5394 66.0426 50.583 62.6289C53.6503 59.1885 55.1219 54.5561 55.0078 49.8623C54.846 43.2092 51.5348 36.6489 45.3281 33.3848ZM16.6436 54.7578H23.7178C30.1464 54.7578 34.8236 52.4298 37.8994 49.0381C40.998 45.6212 42.5578 41.0277 42.5352 36.3867C42.528 34.9293 42.3648 33.4756 42.0479 32.0615C40.2704 31.5397 38.317 31.253 36.1904 31.2529H16.6436V54.7578Z" fill="white"/>
<rect x="13.9736" y="28.5833" width="0.779566" height="1.55913" fill="white"/>
</svg>
