<svg width="1080" height="189" viewBox="0 0 1080 189" fill="none" xmlns="http://www.w3.org/2000/svg">
<path d="M67.5719 158.219L25.3125 31.1709H34.7413L57.1847 99.2163C63.3976 117.681 68.5043 133.729 72.0899 147.852H72.6526C76.4341 133.534 82.2783 117.118 88.8829 99.2163L113.573 31.1709H123.211L76.0553 158.219H67.5719Z" fill="white"/>
<path d="M184.809 31.1709H175.957V158.219H184.809V31.1709Z" fill="white"/>
<path d="M372.628 7.18457H363.739V161.494H372.628V7.18457Z" fill="white"/>
<path d="M243.603 144.093C251.875 149.595 261.584 152.543 271.521 152.571C290.392 152.571 302.092 141.811 302.092 126.156C302.092 111.838 294.726 103.556 276.445 96.3901C255.868 89.2255 243.603 78.6614 243.603 61.3362C243.603 42.6608 259.073 29.0787 280.579 29.0787C292.439 29.0787 301.524 32.2925 305.845 35.1268L302.457 42.6608C299.068 40.231 290.953 36.6238 280.014 36.6238C259.461 36.6238 252.476 49.8374 252.476 59.8252C252.476 73.9466 260.579 81.1372 278.884 88.2648C299.817 96.7536 310.941 106.178 310.941 125.216C310.941 143.692 297.742 160.27 270.585 160.27C259.645 160.27 246.816 156.516 240.223 151.596L243.603 144.093Z" fill="white"/>
<path d="M432.327 95.655C432.327 124.292 448.927 152.757 479.104 152.757C509.281 152.757 526.073 125.393 526.073 93.9342C526.073 67.1755 511.353 36.6247 479.481 36.6247C447.228 36.6247 432.323 66.047 432.323 95.652M535.35 93.377C535.35 138.258 507.983 160.282 478.554 160.282C447.235 160.282 423.097 135.595 423.097 96.0155C423.097 54.3484 448.181 29.0867 480.077 29.0867C512.121 29.0867 535.35 53.9809 535.35 93.377Z" fill="white"/>
<path d="M579.407 158.219V31.1709H587.902L637.514 106.185C647.693 122.024 655.047 133.914 661.271 146.145L661.627 145.962C660.313 128.809 660.153 114.294 660.153 94.2957V31.1709H668.994V158.219H660.522L612.054 84.3209C602.612 69.6083 593.944 56.2259 587.326 43.231L586.958 43.4307C587.904 59.0622 588.088 72.828 588.088 93.9432V158.222L579.407 158.219Z" fill="white"/>
<path d="M787.776 95.0737H736.861V150.678H793.816V158.224H727.985V31.1759H790.783V38.709H736.861V87.5407H787.776V95.0737Z" fill="white"/>
<path d="M924.47 153.689C918.061 157.075 905.795 160.28 890.326 160.28C859.583 160.28 830.154 140.489 830.154 95.4493C830.154 57.745 854.5 29.0847 894.488 29.0847C910.694 29.0847 920.135 32.68 924.089 34.7532L921.081 42.2863C914.672 39.0835 905.427 36.8265 894.66 36.8265C860.345 36.8265 839.411 59.0582 839.411 95.657C839.411 130.122 859.215 152.382 893.149 152.382C904.101 152.382 914.672 150.124 921.817 146.542L924.47 153.689Z" fill="white"/>
<path d="M1004.13 38.714H962.631V31.1809H1054.69V38.714H1013.18V158.217H1004.13V38.714Z" fill="white"/>
</svg>
