<svg width="223" height="46" viewBox="0 0 223 46" fill="none" xmlns="http://www.w3.org/2000/svg">
<path fill-rule="evenodd" clip-rule="evenodd" d="M27.3764 0.519229C27.3913 0.517617 27.4121 0.518936 27.4161 0.519189L27.4168 0.519229C29.5074 0.300417 32.0063 1.9203 31.9936 4.64542C31.9924 4.9194 31.9659 5.20455 31.9109 5.50013C31.6209 7.05923 30.7225 7.87115 29.8055 8.69859C29.1969 9.24752 28.5412 9.7227 27.9253 10.169L27.9253 10.169C27.5293 10.456 27.1497 10.7311 26.8097 11.0062C25.82 11.807 25.0954 12.7045 24.4209 13.9213C23.936 14.7963 23.3092 16.104 23.306 17.1558C23.3041 17.92 23.6318 18.549 24.5828 18.7783C26.1392 19.1539 28.1524 18.048 29.4814 17.2396C31.1114 16.2494 32.2045 15.359 33.1654 14.0008C33.5944 13.3947 33.9331 12.7854 34.2622 12.1933C34.739 11.3354 35.1957 10.5137 35.8778 9.79045C38.4869 7.02297 43.0701 8.65577 43.1286 12.4657C43.1298 12.5426 43.1291 12.6204 43.1266 12.699L43.1248 12.7471C43.0335 14.9217 41.3994 16.162 39.9263 16.7145C39.0621 17.0391 38.2608 17.224 37.3757 17.3623C37.1893 17.3914 36.991 17.4188 36.7851 17.4471C36.1226 17.5384 35.3813 17.6406 34.7041 17.8483C33.0097 18.368 31.483 19.4784 30.3718 20.6823C29.8441 21.2543 29.2597 21.9048 28.7524 22.6662C28.3546 23.2636 28.0538 23.9688 28.0514 24.6024C28.0495 25.1592 28.2782 25.6606 28.8739 25.9849C30.2228 26.7197 32.2768 26.067 33.6106 25.5393C34.8522 25.0484 36.0184 24.2582 36.8494 23.4747C37.0015 23.3313 37.1615 23.1751 37.3294 23.0112L37.3294 23.0112C38.8503 21.5266 41.018 19.4106 43.7722 20.4789C44.8795 20.9081 45.8417 22.0127 46.161 23.1913C46.2798 23.6296 46.321 24.0686 46.2992 24.4932C46.2945 24.5846 46.2869 24.6753 46.2765 24.7652C46.1721 25.6706 45.7868 26.4932 45.2701 27.0792C44.4303 28.0321 43.3292 28.5039 41.8291 28.5771C40.7358 28.6305 39.8068 28.5071 38.9148 28.3885C38.5333 28.3379 38.1585 28.2881 37.7806 28.2534C34.8371 27.9833 32.4484 29.2498 30.3718 30.561C29.3661 31.196 28.3622 31.9112 27.4975 32.7875C26.8068 33.4879 25.733 34.6012 25.784 35.7884C25.7862 35.8403 25.7907 35.8923 25.7974 35.9444C25.8821 36.6055 26.3073 36.9909 26.7689 37.4015L26.8365 37.4615C27.2395 37.8183 27.7384 38.2603 27.7808 38.859C27.7844 38.9094 27.7849 38.9589 27.7825 39.0077C27.7821 39.0169 27.7815 39.0261 27.7809 39.0353C27.78 39.0469 27.7791 39.0585 27.7779 39.07C27.6973 39.8825 26.8251 40.4808 26.2018 40.8845C25.9411 41.0533 25.6786 41.2253 25.4136 41.3989L25.413 41.3992C22.0356 43.6116 18.2674 46.08 13.2057 45.3782C7.46243 44.5818 3.10884 40.4894 1.5462 35.2166C1.14607 33.8658 0.917442 32.452 0.917969 30.8702C0.918092 30.4041 0.938108 29.9234 0.979493 29.4255C1.2797 25.8156 2.71242 22.4406 4.38015 19.0209C4.42894 18.9208 4.47826 18.8201 4.52789 18.7187C5.39452 16.9487 6.35982 14.9771 6.36296 12.9326C6.36384 12.2829 6.26751 11.6257 6.03991 10.9654C5.91861 10.6131 5.7838 10.2797 5.64972 9.94808C5.43434 9.41541 5.22086 8.88745 5.06836 8.29329C4.93241 7.76371 4.86993 7.25217 4.87065 6.76479C4.87261 5.18148 5.54145 3.8531 6.52591 2.98869C9.15323 0.681524 12.5379 2.52397 13.2869 5.13444C13.3959 5.51425 13.4433 5.93696 13.4424 6.36516C13.4409 7.04368 13.3178 7.73604 13.125 8.29329C12.792 9.25671 12.2534 10.0066 11.6844 10.7989L11.6844 10.7989C11.2376 11.4212 10.7719 12.0696 10.3722 12.8682C9.97357 13.6654 9.6379 14.5966 9.52216 15.4188C9.47367 15.7628 9.44533 16.1183 9.44484 16.4702C9.44283 18.11 10.0457 19.6714 12.0324 19.6279C13.1512 19.6035 14.2469 19.0337 15.1497 18.4945C17.8866 16.8592 20.2217 14.8163 21.8703 12.0573C22.41 11.1536 22.8973 10.064 23.1253 8.98031C23.2857 8.21794 23.3368 7.46102 23.3928 6.63237C23.4197 6.23342 23.4478 5.81783 23.4898 5.377C23.7461 2.6845 25.0387 0.818101 27.3764 0.519229ZM32.761 34.4871C31.6409 35.4605 29.4716 37.6869 30.9797 39.3857C31.8497 40.3661 34.1454 41.1683 35.6761 41.2889C36.8033 41.3776 37.8169 41.1604 38.6402 40.7223C39.9786 40.0104 40.8144 38.7145 40.8185 37.1992C40.8216 36.0489 40.3795 35.0366 39.8873 34.4459C39.0891 33.4881 37.6085 32.7928 36.1629 32.9077C35.1532 32.9875 34.2317 33.405 33.4446 33.9533C33.3949 33.9879 33.3457 34.023 33.2971 34.0586C33.1101 34.1955 32.9311 34.3393 32.761 34.4871Z" fill="#00C9A5"/>
<path d="M71.6922 34.7267V25.4744C71.6922 23.2461 70.1368 22.1013 68.3423 22.1013C66.5475 22.1013 64.8992 23.2461 64.8992 25.4744V34.7267H60.1956V12.1369H64.899V20.4922C65.9821 19.0995 67.8778 17.8309 70.2606 17.8309C73.8191 17.8309 76.3956 20.1827 76.3956 23.9889V34.7269H71.6922V34.7267Z" fill="white"/>
<path d="M118.9 34.7267V25.4744C118.9 23.2461 117.91 22.1012 116.146 22.1012C114.382 22.1012 113.299 23.2461 113.299 25.4744V34.7267H108.596V25.4744C108.596 23.2461 107.605 22.1012 105.842 22.1012C104.078 22.1012 102.995 23.2461 102.995 25.4744V34.7267H98.2911V18.1401H102.995V20.4919C104.078 19.0993 105.501 17.8306 107.884 17.8306C110.05 17.8306 111.69 18.79 112.557 20.461C114.011 18.7588 115.744 17.8306 118.003 17.8306C121.5 17.8306 123.604 19.9349 123.604 23.927V34.7267H118.9Z" fill="white"/>
<path d="M138.653 34.7267V32.3439C137.508 33.8911 135.93 35.0359 133.485 35.0359C129.617 35.0359 125.935 32.0035 125.935 26.4645V26.4026C125.935 20.8633 129.555 17.8306 133.485 17.8306C135.992 17.8306 137.539 18.9757 138.653 20.3062V18.1756H143.357V34.7267H138.653ZM138.715 26.4026C138.715 23.6484 136.889 21.8225 134.692 21.8225C132.495 21.8225 130.639 23.6172 130.639 26.4026V26.4645C130.639 29.2184 132.495 31.0441 134.692 31.0441C136.889 31.0441 138.715 29.2184 138.715 26.4645V26.4026Z" fill="white"/>
<path d="M158.284 34.7267V25.4744C158.284 22.8319 156.772 22.1012 154.682 22.1012C152.887 22.1012 151.239 23.2461 151.239 25.4744V34.7267H146.535V18.1401H151.239V20.4919C152.322 19.0993 154.218 17.8306 156.6 17.8306C160.159 17.8306 162.987 20.0768 162.987 24.285V34.7267H158.284Z" fill="white"/>
<path d="M83.7182 18.202V27.4545C83.7182 30.097 85.2297 30.8277 87.3198 30.8277C89.1146 30.8277 90.7629 29.6826 90.7629 27.4545V18.202H95.4663V34.7888H90.7629V32.4367C89.6797 33.8294 87.784 35.0978 85.4013 35.0978C81.8427 35.0978 79.0146 32.8519 79.0146 28.6439V18.202H83.7182V18.202Z" fill="white"/>
<path d="M171.877 15.378C170.794 15.378 170.175 15.9351 170.175 17.1728V18.3259H173.73V22.163H170.237V34.7268H165.534V22.163V18.295V16.7398C165.534 13.0881 167.359 11.4171 170.67 11.4171C172.156 11.4171 173.901 11.6028 174.767 11.8814V15.7804C174.086 15.533 172.682 15.378 171.877 15.378Z" fill="white"/>
<path d="M185.171 22.7511C182.046 22.7511 180.127 24.6387 180.127 28.5998V34.7271H175.423V18.1403H180.127V21.4824C181.087 19.1925 182.633 17.7072 185.419 17.8308V22.7511H185.171Z" fill="white"/>
<path d="M194.7 35.0981C189.563 35.0981 185.756 31.292 185.756 26.5267V26.4648C185.756 21.6993 189.594 17.831 194.761 17.831C199.898 17.831 203.704 21.6371 203.704 26.4029V26.4648C203.704 31.2301 199.867 35.0981 194.7 35.0981ZM199.063 26.4645C199.063 24.0196 197.299 21.8844 194.699 21.8844C192.007 21.8844 190.398 23.9577 190.398 26.4027V26.4645C190.398 28.9092 192.162 31.0441 194.761 31.0441C197.453 31.0441 199.063 28.9711 199.063 26.5264V26.4645Z" fill="white"/>
<path d="M213.456 39.7401C210.764 39.7401 208.226 39.1211 206.122 38.0069L207.731 34.4791C209.433 35.4385 211.135 35.9953 213.332 35.9953C216.551 35.9953 218.067 34.4484 218.067 31.4776V30.6729C216.674 32.3442 215.158 33.3652 212.652 33.3652C208.784 33.3652 205.287 30.5491 205.287 25.6289V25.567C205.287 20.6157 208.845 17.8306 212.652 17.8306C215.22 17.8306 216.736 18.9138 218.005 20.3062V18.1401H222.709V30.9824C222.708 37.2335 219.614 39.7401 213.456 39.7401ZM218.067 25.5672C218.067 23.3082 216.303 21.7301 214.013 21.7301C211.723 21.7301 209.99 23.3082 209.99 25.5672V25.6291C209.99 27.9193 211.723 29.4665 214.013 29.4665C216.303 29.4665 218.067 27.8883 218.067 25.6291V25.5672V25.5672Z" fill="white"/>
<path d="M165.545 29.4689L165.52 35.2691V35.9188C165.52 37.1567 164.901 37.7138 163.818 37.7138C163.509 37.7138 163.223 37.6906 162.949 37.6484V40.8652C163.532 40.9636 164.247 41.0554 165.071 41.0554C168.382 41.0554 170.249 39.6366 170.249 35.9854V34.9332V31.4652V29.4689H165.545V29.4689Z" fill="white"/>
</svg>
